<svg id="S1" xmlns="http://www.w3.org/2000/svg" xmlns:xlink="http://www.w3.org/1999/xlink" width="125.098" height="108.868" viewBox="0 0 125.098 108.868">
  <defs>
    <clipPath id="clip-path">
      <rect id="Rectangle_61" data-name="Rectangle 61" width="125.098" height="108.868"/>
    </clipPath>
  </defs>
  <g id="Group_69" data-name="Group 69" transform="translate(0 0)" clip-path="url(#clip-path)">
    <path id="Path_1050" data-name="Path 1050" d="M393.065,133.452a8.567,8.567,0,1,1,8.567-8.566A8.592,8.592,0,0,1,393.065,133.452Z" transform="translate(-209.905 -88.794)" fill="#0064aa"/>
    <path id="Path_1051" data-name="Path 1051" d="M473.4,92.355a24.864,24.864,0,0,0-24.791-24.791h0a24.863,24.863,0,0,0-24.79,24.791v36.226s49.577-5.52,49.581-36.223Z" transform="translate(-227.028 -67.564)" fill="#0064aa"/>
    <path id="Path_1052" data-name="Path 1052" d="M370.995,181.8a4.532,4.532,0,1,1,4.532-4.532A4.546,4.546,0,0,1,370.995,181.8Zm-17.247-4.536v0a17.248,17.248,0,1,0,34.5,0v-25.2S353.752,155.908,353.747,177.267Z" transform="translate(-196.515 -104.36)" fill="#0064aa"/>
    <path id="Path_1053" data-name="Path 1053" d="M427.286,199.84a5.517,5.517,0,0,1-2.158-2.07,6.048,6.048,0,0,1,.008-5.961,5.583,5.583,0,0,1,2.167-2.07,6.354,6.354,0,0,1,3.085-.749,6.425,6.425,0,0,1,2.528.483,5.151,5.151,0,0,1,1.934,1.4l-1.353,1.273a3.948,3.948,0,0,0-3.013-1.321,4.218,4.218,0,0,0-2.078.508,3.65,3.65,0,0,0-1.434,1.409,4.318,4.318,0,0,0,0,4.092,3.652,3.652,0,0,0,1.434,1.41,4.223,4.223,0,0,0,2.078.507,3.924,3.924,0,0,0,3.013-1.337l1.353,1.289a5.152,5.152,0,0,1-1.941,1.4,6.494,6.494,0,0,1-2.537.483,6.349,6.349,0,0,1-3.085-.749Z" transform="translate(-227.256 -120.437)" fill="#0064aa"/>
    <path id="Path_1054" data-name="Path 1054" d="M452.765,198.246a3.673,3.673,0,0,0,1.417-1.418,4.287,4.287,0,0,0,0-4.076,3.672,3.672,0,0,0-1.417-1.417,4.313,4.313,0,0,0-4.06,0,3.669,3.669,0,0,0-1.418,1.417,4.287,4.287,0,0,0,0,4.076,3.671,3.671,0,0,0,1.418,1.418,4.317,4.317,0,0,0,4.06,0Zm-5.139,1.594a5.536,5.536,0,0,1-2.174-2.078,5.987,5.987,0,0,1,0-5.944,5.539,5.539,0,0,1,2.174-2.079,6.83,6.83,0,0,1,6.218,0,5.566,5.566,0,0,1,2.175,2.07,6.018,6.018,0,0,1,0,5.961,5.557,5.557,0,0,1-2.175,2.07,6.826,6.826,0,0,1-6.218,0Z" transform="translate(-236.103 -120.437)" fill="#0064aa"/>
    <path id="Path_1055" data-name="Path 1055" d="M480.473,200.553l-.016-7.475-3.705,6.186h-.935l-3.705-6.089v7.378h-2V189.276h1.724l4.478,7.475,4.4-7.475h1.724l.016,11.277Z" transform="translate(-247.185 -120.561)" fill="#0064aa"/>
    <path id="Path_1056" data-name="Path 1056" d="M503.985,194.947a2.3,2.3,0,0,0,0-3.319,3.219,3.219,0,0,0-2.079-.58h-2.449v4.478h2.449a3.219,3.219,0,0,0,2.079-.58Zm.571-5.187a3.709,3.709,0,0,1,1.667,1.385,4.23,4.23,0,0,1,0,4.277,3.686,3.686,0,0,1-1.667,1.393A6.238,6.238,0,0,1,502,197.3h-2.546v3.254h-2.095V189.276H502A6.248,6.248,0,0,1,504.556,189.759Z" transform="translate(-259.05 -120.561)" fill="#0064aa"/>
    <path id="Path_1057" data-name="Path 1057" d="M522.187,196.3l-2.126-4.93-2.11,4.93Zm.693,1.643h-5.638l-1.112,2.61h-2.158l5.074-11.277h2.062l5.091,11.277h-2.191Z" transform="translate(-266.282 -120.561)" fill="#0064aa"/>
    <path id="Path_1058" data-name="Path 1058" d="M548.188,189.276v11.277h-1.724l-6.218-7.636v7.636h-2.078V189.276h1.724l6.218,7.636v-7.636Z" transform="translate(-276.818 -120.561)" fill="#0064aa"/>
    <path id="Path_1059" data-name="Path 1059" d="M564.866,196.574v3.979h-2.094v-3.947l-4.43-7.33h2.239l3.3,5.493,3.334-5.493h2.062l-4.414,7.3Z" transform="translate(-285.603 -120.561)" fill="#0064aa"/>
    <path id="Path_1060" data-name="Path 1060" d="M719.117,147.413l-.18.312h-43.1L654.281,110.4l21.552-37.329h.36l4.886,8.462,5.2-9.016h.686l-5.547,9.609,2.618,4.534,8.165-14.144h.915L684.5,87.449l2.447,4.238,11.069-19.173h1.371l-11.755,20.36,2.218,3.841,13.973-24.2h1.829L690.761,98.3l2.018,3.5,16.905-29.281h2.286l-18.048,31.26,1.761,3.05,19.809-34.31h2.743L697.054,109.2l1.7,2.938,21.221-36.756,1.829,3.166L700.579,115.3l18.539,32.109Zm2.105-78.305H673.547L649.709,110.4l23.838,41.289h47.675L745.061,110.4Z" transform="translate(-325.387 -68.236)" fill="#f6b217"/>
    <path id="Path_1061" data-name="Path 1061" d="M655.746,238.138q0-1.093-1.635-1.094h-2.273v2.187h2.273Q655.747,239.231,655.746,238.138Zm-3.908-4.277v2.09h1.992a2.022,2.022,0,0,0,1.131-.266.874.874,0,0,0,.395-.774.885.885,0,0,0-.395-.785,2.026,2.026,0,0,0-1.131-.265Zm4.958,3.221a1.911,1.911,0,0,1,.368,1.2,1.753,1.753,0,0,1-.758,1.521,3.808,3.808,0,0,1-2.209.536h-3.767v-7.579h3.551a3.482,3.482,0,0,1,2.067.526,1.687,1.687,0,0,1,.725,1.445,1.894,1.894,0,0,1-.26,1,1.781,1.781,0,0,1-.715.671A2,2,0,0,1,656.8,237.082Z" transform="translate(-325.701 -139.495)" fill="#f6b217"/>
    <path id="Path_1062" data-name="Path 1062" d="M673.307,234.338a2.16,2.16,0,0,0-1.4-.39h-1.645v3.02h1.645a2.137,2.137,0,0,0,1.4-.4,1.374,1.374,0,0,0,.477-1.121A1.358,1.358,0,0,0,673.307,234.338Zm.509,6-1.549-2.219c-.065.007-.162.011-.292.011h-1.71v2.209h-1.408v-7.579h3.118a4.189,4.189,0,0,1,1.716.325,2.492,2.492,0,0,1,1.121.931,2.606,2.606,0,0,1,.39,1.44,2.564,2.564,0,0,1-.417,1.472,2.477,2.477,0,0,1-1.2.92l1.743,2.49h-1.515Z" transform="translate(-333.725 -139.495)" fill="#f6b217"/>
    <path id="Path_1063" data-name="Path 1063" d="M690.334,237.477l-1.429-3.313-1.418,3.313Zm.466,1.1h-3.789l-.747,1.754h-1.451l3.411-7.579h1.386l3.421,7.579h-1.472l-.758-1.754Z" transform="translate(-340.672 -139.495)" fill="#f6b217"/>
    <path id="Path_1064" data-name="Path 1064" d="M711.643,232.757v7.579h-1.159l-4.179-5.132v5.132h-1.4v-7.579h1.158l4.179,5.132v-5.132Z" transform="translate(-349.423 -139.495)" fill="#f6b217"/>
    <path id="Path_1065" data-name="Path 1065" d="M727.525,239.145a3.207,3.207,0,0,0,1.467-.32,2.283,2.283,0,0,0,.974-.909,2.921,2.921,0,0,0,0-2.739,2.287,2.287,0,0,0-.974-.909,3.214,3.214,0,0,0-1.467-.32h-1.84v5.2Zm-3.248-6.388h3.313a4.76,4.76,0,0,1,2.154.471,3.486,3.486,0,0,1,1.462,1.332,4.055,4.055,0,0,1,0,3.973,3.485,3.485,0,0,1-1.462,1.332,4.753,4.753,0,0,1-2.154.471h-3.313v-7.579Z" transform="translate(-357.856 -139.495)" fill="#f6b217"/>
    <path id="Path_1066" data-name="Path 1066" d="M759.813,232.757v7.579h-1.159l-4.179-5.132v5.132h-1.4v-7.579h1.158l4.179,5.132v-5.132Z" transform="translate(-370.398 -139.495)" fill="#f6b217"/>
    <path id="Path_1067" data-name="Path 1067" d="M776.07,237.477l-1.429-3.313-1.418,3.313Zm.466,1.1h-3.789L772,240.336h-1.45l3.41-7.579h1.386l3.421,7.579h-1.473Z" transform="translate(-378.005 -139.495)" fill="#f6b217"/>
    <path id="Path_1068" data-name="Path 1068" d="M797.607,240.336l-.011-5.024-2.49,4.157h-.628l-2.49-4.092v4.959h-1.342v-7.579H791.8l3.01,5.023,2.956-5.023h1.158l.011,7.579h-1.331Z" transform="translate(-386.755 -139.495)" fill="#f6b217"/>
    <path id="Path_1069" data-name="Path 1069" d="M818.478,239.155v1.181h-5.684v-7.579h5.532v1.181H814.2v1.97h3.659v1.159H814.2v2.089h4.276Z" transform="translate(-396.399 -139.495)" fill="#f6b217"/>
    <path id="Path_1070" data-name="Path 1070" d="M123.474,71.185l14.781,14.781h41.231V127.2l14.781,14.781V71.185H123.474Z" transform="translate(-96.247 -69.141)" fill="#ce5959"/>
    <path id="Path_1071" data-name="Path 1071" d="M156.873,155.789H112.308V109.766h3.149v42.873h41.416ZM101.479,97.366v68.429h68.429V138.6l-41.231-41.23Z" transform="translate(-86.669 -80.541)" fill="#ce5959"/>
    <path id="Path_1072" data-name="Path 1072" d="M106.667,240.918a.218.218,0,0,1,.158.07l.411.449a3.315,3.315,0,0,1-1.156.861,3.943,3.943,0,0,1-1.637.308,3.853,3.853,0,0,1-1.521-.29,3.326,3.326,0,0,1-1.164-.812,3.663,3.663,0,0,1-.747-1.253,4.67,4.67,0,0,1-.265-1.607,4.407,4.407,0,0,1,.284-1.608,3.678,3.678,0,0,1,.8-1.256,3.58,3.58,0,0,1,1.231-.815,4.2,4.2,0,0,1,1.583-.289,3.529,3.529,0,0,1,2.577.985l-.341.482a.362.362,0,0,1-.086.089.237.237,0,0,1-.141.036.272.272,0,0,1-.149-.052c-.052-.034-.115-.076-.187-.127s-.157-.1-.255-.162a2.211,2.211,0,0,0-.346-.163,2.914,2.914,0,0,0-.465-.128,3.287,3.287,0,0,0-.612-.051,2.958,2.958,0,0,0-1.14.213,2.554,2.554,0,0,0-.89.609,2.771,2.771,0,0,0-.582.964,3.675,3.675,0,0,0-.208,1.272,3.741,3.741,0,0,0,.208,1.293,2.846,2.846,0,0,0,.569.961,2.385,2.385,0,0,0,.852.6,2.736,2.736,0,0,0,1.061.206,4.309,4.309,0,0,0,.623-.041,2.562,2.562,0,0,0,.511-.127,2.181,2.181,0,0,0,.439-.219,3.413,3.413,0,0,0,.409-.317A.276.276,0,0,1,106.667,240.918Z" transform="translate(-86.35 -140.331)" fill="#ce5959"/>
    <path id="Path_1073" data-name="Path 1073" d="M125.266,238.645a3.941,3.941,0,0,0-.2-1.283,2.7,2.7,0,0,0-.552-.961,2.4,2.4,0,0,0-.866-.6,3.152,3.152,0,0,0-2.268,0,2.425,2.425,0,0,0-.869.6,2.692,2.692,0,0,0-.554.961,4.312,4.312,0,0,0,0,2.563,2.691,2.691,0,0,0,.554.958,2.393,2.393,0,0,0,.869.6,3.191,3.191,0,0,0,2.268,0,2.373,2.373,0,0,0,.866-.6,2.7,2.7,0,0,0,.552-.958A3.916,3.916,0,0,0,125.266,238.645Zm1.077,0a4.477,4.477,0,0,1-.276,1.6,3.659,3.659,0,0,1-.78,1.253,3.486,3.486,0,0,1-1.209.815,4.347,4.347,0,0,1-3.12,0,3.5,3.5,0,0,1-1.208-.815,3.665,3.665,0,0,1-.779-1.253,4.771,4.771,0,0,1,0-3.2,3.7,3.7,0,0,1,.779-1.256,3.517,3.517,0,0,1,1.208-.82,4.316,4.316,0,0,1,3.12,0,3.507,3.507,0,0,1,1.209.82,3.693,3.693,0,0,1,.78,1.256A4.475,4.475,0,0,1,126.343,238.645Z" transform="translate(-94.165 -140.331)" fill="#ce5959"/>
    <path id="Path_1074" data-name="Path 1074" d="M143.525,240.056c.038.1.075.193.112.29q.053-.152.113-.29t.135-.278l2.625-4.769a.315.315,0,0,1,.146-.151.676.676,0,0,1,.217-.027h.774v7.757h-.92v-5.7c0-.076,0-.158.006-.244s.009-.175.016-.265l-2.658,4.85a.417.417,0,0,1-.379.244h-.151a.418.418,0,0,1-.379-.244l-2.718-4.867c.011.094.02.186.024.277s.008.173.008.249v5.7h-.92V234.83h.774a.676.676,0,0,1,.217.027.315.315,0,0,1,.146.151l2.679,4.775A1.935,1.935,0,0,1,143.525,240.056Z" transform="translate(-103.258 -140.397)" fill="#ce5959"/>
    <path id="Path_1075" data-name="Path 1075" d="M163.249,238.852h1.245a2.411,2.411,0,0,0,.793-.119,1.619,1.619,0,0,0,.577-.333,1.389,1.389,0,0,0,.352-.511,1.759,1.759,0,0,0,.119-.655,1.489,1.489,0,0,0-.457-1.158,2,2,0,0,0-1.383-.417h-1.245v3.194Zm0,.834v2.9H162.2V234.83h2.29a4.3,4.3,0,0,1,1.28.171,2.462,2.462,0,0,1,.9.484,1.956,1.956,0,0,1,.533.758,2.664,2.664,0,0,1,.176.99,2.52,2.52,0,0,1-.19.991,2.13,2.13,0,0,1-.554.774,2.564,2.564,0,0,1-.907.506,3.882,3.882,0,0,1-1.239.182Z" transform="translate(-113.111 -140.397)" fill="#ce5959"/>
    <path id="Path_1076" data-name="Path 1076" d="M177.815,239.707h2.9l-1.218-3.156a5.733,5.733,0,0,1-.233-.731c-.04.148-.078.284-.117.409s-.075.234-.111.327Zm5.083,2.88h-.812a.348.348,0,0,1-.227-.071.426.426,0,0,1-.13-.178L181,240.466h-3.481l-.725,1.873a.43.43,0,0,1-.13.173.348.348,0,0,1-.228.076h-.812l3.1-7.757H179.8l3.1,7.757Z" transform="translate(-118.956 -140.397)" fill="#ce5959"/>
    <path id="Path_1077" data-name="Path 1077" d="M195.783,234.866a.543.543,0,0,1,.155.143l4.493,5.846c-.011-.094-.018-.185-.021-.273s-.006-.174-.006-.257V234.83h.92v7.757h-.531a.455.455,0,0,1-.208-.043.529.529,0,0,1-.165-.146l-4.488-5.84c.007.09.012.178.016.265s.006.167.006.238v5.527h-.92V234.83h.541A.464.464,0,0,1,195.783,234.866Z" transform="translate(-127.406 -140.397)" fill="#ce5959"/>
    <path id="Path_1078" data-name="Path 1078" d="M216.619,239.5v3.086h-1.044V239.5l-2.842-4.671h.92a.328.328,0,0,1,.222.071.651.651,0,0,1,.141.173l1.775,3.015a3.7,3.7,0,0,1,.182.357q.073.168.133.33c.039-.112.083-.224.13-.335a2.877,2.877,0,0,1,.178-.352l1.77-3.015a.681.681,0,0,1,.132-.165.309.309,0,0,1,.22-.078h.931l-2.848,4.671Z" transform="translate(-135.113 -140.397)" fill="#ce5959"/>
    <path id="Path_1079" data-name="Path 1079" d="M954.7,478.942a3.253,3.253,0,0,0,.667-.059,2.41,2.41,0,0,0,.486-.15,1.679,1.679,0,0,0,.343-.2c.093-.072.177-.138.252-.2a1.888,1.888,0,0,1,.209-.15.4.4,0,0,1,.211-.059.4.4,0,0,1,.185.038.3.3,0,0,1,.108.087l.8.958a4.377,4.377,0,0,1-1.577,1.2,5.018,5.018,0,0,1-2.073.409,4.085,4.085,0,0,1-1.711-.339,3.6,3.6,0,0,1-1.254-.933,4.031,4.031,0,0,1-.772-1.409,5.7,5.7,0,0,1-.262-1.759,6.843,6.843,0,0,1,.195-1.657,6.336,6.336,0,0,1,.553-1.448,5.636,5.636,0,0,1,.856-1.2,5.278,5.278,0,0,1,3.877-1.671,4.672,4.672,0,0,1,1.045.108,3.77,3.77,0,0,1,.854.3,3.24,3.24,0,0,1,.681.458,3.283,3.283,0,0,1,.524.588l-.8.923a1.008,1.008,0,0,1-.2.174.508.508,0,0,1-.294.077.428.428,0,0,1-.217-.056,1.675,1.675,0,0,1-.2-.136l-.227-.178a1.6,1.6,0,0,0-.3-.178,2.227,2.227,0,0,0-.417-.136,2.54,2.54,0,0,0-.569-.056,2.691,2.691,0,0,0-1.2.273,2.836,2.836,0,0,0-.965.78,3.756,3.756,0,0,0-.64,1.23,5.31,5.31,0,0,0-.23,1.619,3.934,3.934,0,0,0,.157,1.161,2.691,2.691,0,0,0,.43.864,1.847,1.847,0,0,0,.651.538,1.829,1.829,0,0,0,.818.185Z" transform="translate(-456.279 -242.974)" fill="#0064aa"/>
    <path id="Path_1080" data-name="Path 1080" d="M978.72,475.012a4.089,4.089,0,0,0-.15-1.143,2.589,2.589,0,0,0-.441-.881,1.963,1.963,0,0,0-.71-.566,2.19,2.19,0,0,0-.951-.2,2.649,2.649,0,0,0-1.252.29,2.752,2.752,0,0,0-.941.815,3.853,3.853,0,0,0-.594,1.262,6.022,6.022,0,0,0-.207,1.633,4.15,4.15,0,0,0,.147,1.14,2.562,2.562,0,0,0,.43.874,1.922,1.922,0,0,0,.7.562,2.2,2.2,0,0,0,.957.2,2.632,2.632,0,0,0,2.2-1.1,3.885,3.885,0,0,0,.6-1.258,5.957,5.957,0,0,0,.209-1.629Zm2.336-.056a6.325,6.325,0,0,1-.193,1.58,6.026,6.026,0,0,1-.545,1.405,5.67,5.67,0,0,1-.853,1.182,5.2,5.2,0,0,1-1.123.9,5.519,5.519,0,0,1-1.348.58,5.585,5.585,0,0,1-1.532.207,4.43,4.43,0,0,1-1.807-.353,4,4,0,0,1-1.359-.965,4.188,4.188,0,0,1-.857-1.44,5.24,5.24,0,0,1-.3-1.787,6.387,6.387,0,0,1,.193-1.583,6.079,6.079,0,0,1,.545-1.409,5.625,5.625,0,0,1,.857-1.182,5.322,5.322,0,0,1,1.126-.906,5.5,5.5,0,0,1,1.35-.58,5.592,5.592,0,0,1,1.538-.207,4.425,4.425,0,0,1,1.8.353,3.951,3.951,0,0,1,1.357.969,4.272,4.272,0,0,1,.852,1.447A5.263,5.263,0,0,1,981.056,474.957Z" transform="translate(-465.349 -242.974)" fill="#0064aa"/>
    <path id="Path_1081" data-name="Path 1081" d="M1001.138,477.218c.073-.154.152-.305.231-.454s.169-.3.26-.448l3.116-5.363a.594.594,0,0,1,.35-.294,1.591,1.591,0,0,1,.406-.056h1.79l-1.259,10.187h-2l.711-5.929c.017-.126.039-.265.068-.417s.062-.308.1-.472l-3.066,5.258a.885.885,0,0,1-.361.353,1.043,1.043,0,0,1-.491.115h-.3a.9.9,0,0,1-.469-.119.632.632,0,0,1-.277-.349l-1.79-5.272c-.006.159-.017.312-.023.461s-.017.285-.028.405l-.7,5.964h-2.013l1.258-10.18h1.993a.575.575,0,0,1,.2.032.372.372,0,0,1,.152.1.6.6,0,0,1,.1.2l1.8,5.369c.1.294.181.594.248.9Z" transform="translate(-475.908 -243.061)" fill="#0064aa"/>
    <path id="Path_1082" data-name="Path 1082" d="M1026.344,472.3l-.412,3.342h1.1a2.06,2.06,0,0,0,.818-.143,1.4,1.4,0,0,0,.543-.405,1.7,1.7,0,0,0,.294-.626,3.213,3.213,0,0,0,.09-.8,1.876,1.876,0,0,0-.079-.552,1.1,1.1,0,0,0-.671-.717,1.633,1.633,0,0,0-.6-.1Zm-.627,5.055-.423,3.433h-2.264l1.248-10.187h3.37a4.828,4.828,0,0,1,1.553.22,2.9,2.9,0,0,1,1.061.609,2.374,2.374,0,0,1,.616.916,3.254,3.254,0,0,1,.192,1.136,4.531,4.531,0,0,1-.255,1.542,3.215,3.215,0,0,1-.779,1.227,3.616,3.616,0,0,1-1.327.811,5.535,5.535,0,0,1-1.9.294h-1.09Z" transform="translate(-487.943 -243.061)" fill="#0064aa"/>
    <path id="Path_1083" data-name="Path 1083" d="M1044.174,476.91h2.563l-.5-2.909q-.068-.363-.135-.738c-.051-.249-.09-.477-.124-.681-.039.112-.085.239-.147.381s-.119.281-.181.416-.113.261-.164.377-.1.2-.119.259l-1.2,2.895Zm5.589,3.88H1048a.759.759,0,0,1-.474-.136.564.564,0,0,1-.214-.36l-.311-1.832h-3.461l-.756,1.832a.769.769,0,0,1-.3.346.881.881,0,0,1-.5.15h-1.79l4.867-10.187h2.332l2.366,10.187Z" transform="translate(-495.419 -243.061)" fill="#0064aa"/>
    <path id="Path_1084" data-name="Path 1084" d="M1067.06,470.614a.56.56,0,0,1,.181.049.463.463,0,0,1,.141.108,1.032,1.032,0,0,1,.13.182l3.568,6.293c.011-.163.023-.32.045-.469s.034-.289.045-.42l.689-5.754h2.01l-1.253,10.187h-1.191a1.11,1.11,0,0,1-.44-.077.659.659,0,0,1-.3-.3l-3.562-6.286c-.006.13-.017.256-.028.378s-.023.235-.034.343l-.7,5.943h-2.01l1.259-10.187h1.2a2.4,2.4,0,0,1,.248.011Z" transform="translate(-505.935 -243.061)" fill="#0064aa"/>
    <path id="Path_1085" data-name="Path 1085" d="M1093.35,476.889l-.48,3.9h-2.281l.48-3.88-2.62-6.307h2.027a.688.688,0,0,1,.457.137.8.8,0,0,1,.243.36l.977,3.084c.068.206.124.4.181.595s.1.375.135.552c.085-.177.186-.36.293-.549s.22-.388.344-.6l1.733-3.084a1.073,1.073,0,0,1,.3-.343.792.792,0,0,1,.491-.154h1.885l-4.172,6.286Z" transform="translate(-516.429 -243.061)" fill="#0064aa"/>
    <path id="Path_1086" data-name="Path 1086" d="M1079.027,407.776l-31.734-56.685-19.873,35.49,11.867,21.195Z" transform="translate(-489.855 -191.021)" fill="#0064aa"/>
    <path id="Path_1087" data-name="Path 1087" d="M1025.957,438.026l-9.778-17.465-9.778,17.465Z" transform="translate(-480.702 -221.271)" fill="#0064aa"/>
    <path id="Path_1088" data-name="Path 1088" d="M987.534,309.384l-44.609,80.232h31.22l29-52.351Z" transform="translate(-453.063 -172.86)" fill="#0064aa"/>
    <path id="Path_1089" data-name="Path 1089" d="M777.938,383.829A6.309,6.309,0,0,1,776.93,380v-5.547a6.372,6.372,0,0,1,1-3.877,5.13,5.13,0,0,1,6.68-.173,5.062,5.062,0,0,1,.959,3.321v1.305h-2.726v-1.344a8.523,8.523,0,0,0-.076-1.3,1.311,1.311,0,0,0-.393-.768,1.407,1.407,0,0,0-.989-.3,1.491,1.491,0,0,0-1.037.317,1.513,1.513,0,0,0-.45.844,7.233,7.233,0,0,0-.106,1.373V380.6a3.946,3.946,0,0,0,.345,1.91,1.327,1.327,0,0,0,1.248.585,1.349,1.349,0,0,0,.97-.307,1.44,1.44,0,0,0,.4-.816,8.449,8.449,0,0,0,.086-1.353v-1.4h2.726v1.248a5.654,5.654,0,0,1-.941,3.485,3.852,3.852,0,0,1-3.263,1.238,4,4,0,0,1-3.426-1.353Z" transform="translate(-380.783 -198.928)" fill="#ce5959"/>
    <path id="Path_1090" data-name="Path 1090" d="M802.748,382.495a3.664,3.664,0,0,0,.327-1.727v-7.16a3.634,3.634,0,0,0-.317-1.708,1.325,1.325,0,0,0-1.276-.576,1.342,1.342,0,0,0-1.286.585,3.554,3.554,0,0,0-.326,1.7v7.16a3.659,3.659,0,0,0,.326,1.727,1.332,1.332,0,0,0,1.286.6A1.311,1.311,0,0,0,802.748,382.495Zm-4.722,1.392a5.966,5.966,0,0,1-1.037-3.792v-5.835a5.8,5.8,0,0,1,1.037-3.743,5.317,5.317,0,0,1,6.891,0,5.8,5.8,0,0,1,1.037,3.743V380.1a5.931,5.931,0,0,1-1.046,3.782,5.2,5.2,0,0,1-6.882.01Z" transform="translate(-389.517 -198.928)" fill="#ce5959"/>
    <path id="Path_1091" data-name="Path 1091" d="M818.474,369.557h2.936l2.207,10.769,2.284-10.769h2.86l.288,15.548h-2.112l-.23-10.807L824.5,385.105h-1.708l-2.245-10.845-.212,10.845h-2.131Z" transform="translate(-398.756 -199.062)" fill="#ce5959"/>
    <path id="Path_1092" data-name="Path 1092" d="M847.111,376.2a1.954,1.954,0,0,0,1.555-.49,2.843,2.843,0,0,0,.4-1.756,5.64,5.64,0,0,0-.134-1.411,1.2,1.2,0,0,0-.547-.739,2.539,2.539,0,0,0-1.277-.25h-1.094V376.2Zm-3.916-6.642h4.568q3.973,0,3.973,4.414,0,4.223-4.165,4.223h-1.555v6.911H843.2Z" transform="translate(-409.637 -199.062)" fill="#ce5959"/>
    <path id="Path_1093" data-name="Path 1093" d="M865.693,379.711l-1.056-6.526-1.056,6.526ZM863.1,369.557h3.032l3.11,15.548h-2.63l-.614-3.59h-2.707l-.633,3.59h-2.669l3.11-15.548Z" transform="translate(-416.951 -199.062)" fill="#ce5959"/>
    <path id="Path_1094" data-name="Path 1094" d="M880.833,369.557h1.977l3.781,8.868v-8.868h2.342v15.548h-1.881l-3.8-9.291v9.291h-2.419V369.557Z" transform="translate(-426.026 -199.062)" fill="#ce5959"/>
    <path id="Path_1095" data-name="Path 1095" d="M902.476,379.174l-3.148-9.617h2.65l1.919,6.162,1.8-6.162h2.591l-3.11,9.617v5.931h-2.707Z" transform="translate(-434.079 -199.062)" fill="#ce5959"/>
    <path id="Path_1096" data-name="Path 1096" d="M782.127,409.133v.811h-2.3v6.319h-.965v-6.319h-2.314v-.811h5.582Z" transform="translate(-380.615 -216.295)" fill="#ce5959"/>
    <path id="Path_1097" data-name="Path 1097" d="M789.394,413.616h2.662l-1.12-2.9a5.521,5.521,0,0,1-.214-.672c-.037.136-.072.261-.107.375s-.069.215-.1.3l-1.12,2.9Zm4.672,2.647h-.747a.32.32,0,0,1-.209-.065.405.405,0,0,1-.12-.164l-.666-1.721h-3.2l-.667,1.721a.385.385,0,0,1-.119.159.314.314,0,0,1-.209.07h-.746l2.851-7.13h.98Z" transform="translate(-385.335 -216.295)" fill="#ce5959"/>
    <path id="Path_1098" data-name="Path 1098" d="M805.064,415.5a4.77,4.77,0,0,0,.53-.027,3.379,3.379,0,0,0,.455-.082,3.034,3.034,0,0,0,.4-.132c.126-.052.252-.111.378-.177V413.51h-1.1a.209.209,0,0,1-.152-.055.177.177,0,0,1-.057-.134v-.547h2.189v2.736a3.928,3.928,0,0,1-.56.338,3.751,3.751,0,0,1-.622.241,4.5,4.5,0,0,1-.709.145,6.612,6.612,0,0,1-.821.047,3.7,3.7,0,0,1-1.423-.266,3.268,3.268,0,0,1-1.114-.746,3.379,3.379,0,0,1-.729-1.152,4.036,4.036,0,0,1-.261-1.477,4.138,4.138,0,0,1,.256-1.488,3.2,3.2,0,0,1,1.881-1.9,4.118,4.118,0,0,1,1.51-.264,4.629,4.629,0,0,1,.786.063,3.694,3.694,0,0,1,.674.178,3.171,3.171,0,0,1,.575.284,3.478,3.478,0,0,1,.492.375l-.273.438a.254.254,0,0,1-.219.134.354.354,0,0,1-.174-.055c-.084-.047-.176-.1-.279-.169a2.412,2.412,0,0,0-.376-.191,3.028,3.028,0,0,0-.522-.157,3.463,3.463,0,0,0-.714-.064,2.9,2.9,0,0,0-1.09.2,2.308,2.308,0,0,0-.83.562,2.479,2.479,0,0,0-.527.885,3.475,3.475,0,0,0-.184,1.167,3.539,3.539,0,0,0,.191,1.206,2.55,2.55,0,0,0,.54.9,2.334,2.334,0,0,0,.826.562,2.764,2.764,0,0,0,1.055.194Z" transform="translate(-391.467 -216.233)" fill="#ce5959"/>
    <path id="Path_1099" data-name="Path 1099" d="M823.035,415.452h3.085v.811h-4.05v-7.13h.965Z" transform="translate(-400.439 -216.295)" fill="#ce5959"/>
    <rect id="Rectangle_59" data-name="Rectangle 59" width="0.965" height="7.13" transform="translate(427.92 192.839)" fill="#ce5959"/>
    <path id="Path_1100" data-name="Path 1100" d="M840.754,409.165a.512.512,0,0,1,.142.132l4.13,5.374c-.01-.086-.017-.17-.02-.251s0-.16,0-.237v-5.05h.846v7.13h-.488a.414.414,0,0,1-.191-.04.481.481,0,0,1-.152-.134l-4.125-5.368q.01.125.015.244c0,.08,0,.152,0,.219v5.08h-.846v-7.13h.5a.433.433,0,0,1,.191.032Z" transform="translate(-408.274 -216.294)" fill="#ce5959"/>
    <path id="Path_1101" data-name="Path 1101" d="M859.546,409.133v.786h-3.424v2.368h2.771v.757h-2.771v2.433h3.424v.786h-4.394v-7.13Z" transform="translate(-414.843 -216.295)" fill="#ce5959"/>
    <path id="Path_1102" data-name="Path 1102" d="M678.869,324.692v48.365L727.233,386.8V338.436Zm2.748,3.639,42.868,12.181v42.65L681.617,370.98Z" transform="translate(-338.084 -179.526)" fill="#ce5959"/>
    <path id="Path_1103" data-name="Path 1103" d="M687.476,426.558l-48.365-13.743V364.45l48.365,13.743Z" transform="translate(-320.772 -196.838)" fill="#ce5959"/>
    <path id="Path_1104" data-name="Path 1104" d="M661.557,324.692l-22.446,22.446,48.365,13.743,22.445-22.445Zm.8,3.086,42.31,12.023-18,18-42.31-12.024Z" transform="translate(-320.772 -179.526)" fill="#ce5959"/>
    <path id="Path_1105" data-name="Path 1105" d="M729.6,450.1l19.723-19.724L729.6,424.775Z" transform="translate(-360.174 -223.106)" fill="#ce5959"/>
    <path id="Path_1106" data-name="Path 1106" d="M382.439,492.092a.24.24,0,0,1,.173.077l.452.494a3.655,3.655,0,0,1-1.271.947,4.338,4.338,0,0,1-1.8.339,4.231,4.231,0,0,1-1.673-.318,3.671,3.671,0,0,1-1.28-.893,4.045,4.045,0,0,1-.821-1.378,5.168,5.168,0,0,1-.291-1.768,4.839,4.839,0,0,1,.312-1.768,4.048,4.048,0,0,1,.878-1.381,3.926,3.926,0,0,1,1.354-.9,4.609,4.609,0,0,1,1.741-.318,3.887,3.887,0,0,1,2.833,1.083l-.375.53a.386.386,0,0,1-.1.1.258.258,0,0,1-.154.039.3.3,0,0,1-.164-.056c-.058-.038-.126-.084-.206-.14s-.172-.115-.279-.178a2.461,2.461,0,0,0-.381-.179,3.12,3.12,0,0,0-.512-.139,3.546,3.546,0,0,0-.672-.057,3.241,3.241,0,0,0-1.253.235,2.8,2.8,0,0,0-.979.67,3.034,3.034,0,0,0-.64,1.06,4.035,4.035,0,0,0-.229,1.4,4.114,4.114,0,0,0,.229,1.423,3.146,3.146,0,0,0,.625,1.056,2.631,2.631,0,0,0,.937.658,3,3,0,0,0,1.167.226,4.719,4.719,0,0,0,.685-.045,2.807,2.807,0,0,0,.562-.139,2.361,2.361,0,0,0,.482-.241,3.738,3.738,0,0,0,.449-.348.3.3,0,0,1,.2-.089Z" transform="translate(-206.173 -249.429)" fill="#f6b217"/>
    <path id="Path_1107" data-name="Path 1107" d="M402.891,489.593a4.342,4.342,0,0,0-.214-1.411,3,3,0,0,0-.607-1.056,2.64,2.64,0,0,0-.952-.663,3.46,3.46,0,0,0-2.494,0,2.666,2.666,0,0,0-.955.663,2.97,2.97,0,0,0-.61,1.056,4.749,4.749,0,0,0,0,2.819,2.962,2.962,0,0,0,.61,1.054,2.634,2.634,0,0,0,.955.661,3.507,3.507,0,0,0,2.494,0,2.609,2.609,0,0,0,.952-.661,2.99,2.99,0,0,0,.607-1.054A4.308,4.308,0,0,0,402.891,489.593Zm1.184,0a4.916,4.916,0,0,1-.3,1.759,4.014,4.014,0,0,1-.857,1.378,3.823,3.823,0,0,1-1.331.9,4.781,4.781,0,0,1-3.431,0,3.836,3.836,0,0,1-1.327-.9,4.023,4.023,0,0,1-.857-1.378,5.245,5.245,0,0,1,0-3.518,4.057,4.057,0,0,1,.857-1.381,3.851,3.851,0,0,1,1.327-.9,4.742,4.742,0,0,1,3.431,0,3.837,3.837,0,0,1,1.331.9,4.047,4.047,0,0,1,.857,1.381A4.919,4.919,0,0,1,404.076,489.593Z" transform="translate(-214.768 -249.429)" fill="#f6b217"/>
    <path id="Path_1108" data-name="Path 1108" d="M422.971,491.145c.042.105.082.211.122.318.04-.111.082-.217.125-.318s.093-.2.148-.307l2.887-5.244a.341.341,0,0,1,.161-.167.743.743,0,0,1,.238-.03h.851v8.53h-1.012V487.66c0-.083,0-.172.006-.268s.01-.193.019-.292l-2.923,5.333a.459.459,0,0,1-.416.268h-.167a.459.459,0,0,1-.417-.268l-2.988-5.351c.012.1.021.2.027.3s.009.191.009.274v6.268h-1.012V485.4h.851a.746.746,0,0,1,.238.03.343.343,0,0,1,.16.167l2.947,5.25a2.274,2.274,0,0,1,.145.3Z" transform="translate(-224.767 -249.503)" fill="#f6b217"/>
    <path id="Path_1109" data-name="Path 1109" d="M444.661,489.821h1.369a2.675,2.675,0,0,0,.872-.131,1.786,1.786,0,0,0,.633-.366,1.512,1.512,0,0,0,.387-.562,1.92,1.92,0,0,0,.132-.72,1.634,1.634,0,0,0-.5-1.274,2.194,2.194,0,0,0-1.52-.458h-1.369v3.512Zm0,.916v3.191h-1.149V485.4h2.518a4.71,4.71,0,0,1,1.407.187,2.705,2.705,0,0,1,.991.532,2.152,2.152,0,0,1,.586.833,2.941,2.941,0,0,1,.194,1.09,2.769,2.769,0,0,1-.209,1.09,2.343,2.343,0,0,1-.61.851,2.833,2.833,0,0,1-1,.556,4.277,4.277,0,0,1-1.363.2h-1.369Z" transform="translate(-235.602 -249.503)" fill="#f6b217"/>
    <path id="Path_1110" data-name="Path 1110" d="M460.678,490.761h3.185l-1.339-3.47a6.278,6.278,0,0,1-.256-.8c-.043.163-.086.313-.128.45s-.082.257-.122.36l-1.339,3.464Zm5.59,3.167h-.893a.385.385,0,0,1-.25-.077.478.478,0,0,1-.143-.2l-.8-2.06h-3.827l-.8,2.06a.472.472,0,0,1-.143.19.381.381,0,0,1-.251.084h-.893l3.411-8.53h1.173l3.411,8.53Z" transform="translate(-242.029 -249.503)" fill="#f6b217"/>
    <path id="Path_1111" data-name="Path 1111" d="M480.437,485.436a.59.59,0,0,1,.17.158l4.94,6.429c-.012-.1-.02-.2-.024-.3s-.006-.192-.006-.283V485.4h1.012v8.53h-.583a.489.489,0,0,1-.229-.048.577.577,0,0,1-.182-.16L480.6,487.3c.008.1.014.2.019.292s.005.182.005.262v6.078h-1.012V485.4h.6A.522.522,0,0,1,480.437,485.436Z" transform="translate(-251.321 -249.503)" fill="#f6b217"/>
    <path id="Path_1112" data-name="Path 1112" d="M503.351,490.535v3.393H502.2v-3.393l-3.125-5.137h1.012a.36.36,0,0,1,.245.077.739.739,0,0,1,.154.19l1.953,3.316a4.031,4.031,0,0,1,.2.393q.08.185.146.363.065-.185.142-.369a3.259,3.259,0,0,1,.2-.387l1.947-3.316a.791.791,0,0,1,.146-.181.341.341,0,0,1,.242-.086h1.024l-3.131,5.137Z" transform="translate(-259.797 -249.503)" fill="#f6b217"/>
    <path id="Path_1113" data-name="Path 1113" d="M425.327,423.118c.495.062.992.113,1.492.156a42.441,42.441,0,0,0,25.106-39.636l-8.395-8.395A48.737,48.737,0,0,1,425.327,423.118Z" transform="translate(-227.683 -201.538)" fill="#f6b217"/>
    <path id="Path_1114" data-name="Path 1114" d="M420.021,411.9l.229.044a47.132,47.132,0,0,0,18.334-49.615l-11.955-11.955a57.863,57.863,0,0,1-6.608,61.527Z" transform="translate(-225.373 -190.709)" fill="#f6b217"/>
    <path id="Path_1115" data-name="Path 1115" d="M475.844,407.569a43.655,43.655,0,0,1-14.066,23.578,44.482,44.482,0,0,1-6.686,4.8A39.372,39.372,0,0,0,480.7,412.423Z" transform="translate(-240.644 -215.614)" fill="#f6b217"/>
    <path id="Path_1116" data-name="Path 1116" d="M465.125,399.852l-6.9-6.9a44.074,44.074,0,0,1-23.377,38.182h.032a38.933,38.933,0,0,0,4.636-.277A42.49,42.49,0,0,0,465.125,399.852Z" transform="translate(-231.828 -209.247)" fill="#f6b217"/>
    <path id="Path_1117" data-name="Path 1117" d="M396.117,335.082l-8.251-8.251A39.042,39.042,0,0,0,392.49,401.2a55.976,55.976,0,0,0,3.627-66.115Z" transform="translate(-200.453 -180.457)" fill="#f6b217"/>
    <path id="Path_1118" data-name="Path 1118" d="M481.279,372.8a39.172,39.172,0,0,0-39.057-39.058,38.705,38.705,0,0,0-13.983,2.6l50.435,50.436A38.678,38.678,0,0,0,481.279,372.8Z" transform="translate(-228.951 -183.469)" fill="#f6b217"/>
    <path id="Path_1119" data-name="Path 1119" d="M192.335,696.495a1.606,1.606,0,0,0,.554-1.32,1.647,1.647,0,0,0-.563-1.338,2.423,2.423,0,0,0-1.6-.471h-2.455v3.58h2.473A2.452,2.452,0,0,0,192.335,696.495Zm-4.061-4.993h2.345a2.226,2.226,0,0,0,1.485-.434,1.548,1.548,0,0,0,.508-1.246,1.592,1.592,0,0,0-.5-1.255,2.253,2.253,0,0,0-1.532-.444h-2.307V691.5Zm6.562,1.965a3.174,3.174,0,0,1,.71,2.058,3.254,3.254,0,0,1-1.1,2.594,4.735,4.735,0,0,1-3.184.95h-5.593V686.038h5.482a4.688,4.688,0,0,1,3.036.868,2.972,2.972,0,0,1,1.061,2.437,3.039,3.039,0,0,1-.637,1.993,2.963,2.963,0,0,1-1.671,1.015,3.163,3.163,0,0,1,1.892,1.116Z" transform="translate(-123.33 -336.868)" fill="#0064aa"/>
    <path id="Path_1120" data-name="Path 1120" d="M212.271,692.2h2.141q2.233,0,2.233-1.975a1.948,1.948,0,0,0-.544-1.468,2.355,2.355,0,0,0-1.689-.526h-2.141Zm4.19,6.866-3.045-5.076h-1.144v5.076h-2.6V686.038h4.965a4.9,4.9,0,0,1,3.461,1.108,4.154,4.154,0,0,1,.369,5.39,4.054,4.054,0,0,1-2.372,1.328l3.249,5.205h-2.88Z" transform="translate(-133.778 -336.868)" fill="#0064aa"/>
    <path id="Path_1121" data-name="Path 1121" d="M239.572,694.587l-1.92-5.5-1.92,5.5Zm.7,1.975H235.05l-.923,2.621h-2.751l4.8-12.883h2.972l4.78,12.883h-2.75l-.9-2.621Z" transform="translate(-143.231 -336.982)" fill="#0064aa"/>
    <path id="Path_1122" data-name="Path 1122" d="M270.4,699.069h-2.6l-5.833-8.86v8.86h-2.6V686.038h2.6l5.833,8.934v-8.934h2.6Z" transform="translate(-155.416 -336.868)" fill="#0064aa"/>
    <path id="Path_1123" data-name="Path 1123" d="M294.035,695.636a4.77,4.77,0,0,0,0-6.22,4.516,4.516,0,0,0-3.258-1.107h-1.809v8.435h1.809A4.514,4.514,0,0,0,294.035,695.636Zm2.981.314a5.653,5.653,0,0,1-2.353,2.3,7.689,7.689,0,0,1-3.664.822h-4.633V686.038H291a7.838,7.838,0,0,1,3.664.8,5.556,5.556,0,0,1,2.353,2.27,7.6,7.6,0,0,1,0,6.839Z" transform="translate(-167.175 -336.868)" fill="#0064aa"/>
    <path id="Path_1124" data-name="Path 1124" d="M142.533,639.689a29.432,29.432,0,0,1-14.756-3.968l5.7-9.826a18.08,18.08,0,1,0,0-31.293l-5.7-9.827a29.44,29.44,0,1,1,14.756,54.915Z" transform="translate(-98.12 -291.047)" fill="#0064aa"/>
    <path id="Path_1125" data-name="Path 1125" d="M111.6,660.214A11.983,11.983,0,1,1,123.586,672.2,11.982,11.982,0,0,1,111.6,660.214Z" transform="translate(-91.078 -320.406)" fill="#0064aa"/>
    <path id="Path_1126" data-name="Path 1126" d="M108.815,676.1A29.394,29.394,0,1,1,131.494,628l-8.762,7.233a18.033,18.033,0,1,0-.774,23.812l8.279,7.781a29.509,29.509,0,0,1-21.422,9.267Z" transform="translate(-77.064 -306.941)" fill="#0064aa"/>
    <path id="Path_1127" data-name="Path 1127" d="M917.081,197.786a1.424,1.424,0,0,0,.491-1.171,1.46,1.46,0,0,0-.5-1.187,2.15,2.15,0,0,0-1.417-.418H913.48v3.176h2.194a2.174,2.174,0,0,0,1.408-.4Zm-3.6-4.429h2.079a1.98,1.98,0,0,0,1.318-.384,1.373,1.373,0,0,0,.45-1.1,1.412,1.412,0,0,0-.442-1.114,2,2,0,0,0-1.358-.392H913.48Zm5.82,1.744a2.813,2.813,0,0,1,.631,1.825,2.886,2.886,0,0,1-.974,2.3,4.2,4.2,0,0,1-2.825.843h-4.96V188.511h4.862a4.156,4.156,0,0,1,2.694.77,2.635,2.635,0,0,1,.942,2.161,2.694,2.694,0,0,1-.565,1.768,2.626,2.626,0,0,1-1.481.9A2.81,2.81,0,0,1,919.3,195.1Z" transform="translate(-439.236 -120.228)" fill="#403449"/>
    <path id="Path_1128" data-name="Path 1128" d="M934.765,193.979h1.9q1.982,0,1.982-1.752a1.727,1.727,0,0,0-.483-1.3,2.092,2.092,0,0,0-1.5-.467h-1.9Zm3.717,6.091-2.7-4.5h-1.015v4.5h-2.309V188.511h4.4a4.349,4.349,0,0,1,3.07.982,3.684,3.684,0,0,1,.328,4.781,3.594,3.594,0,0,1-2.1,1.179l2.881,4.617h-2.553Z" transform="translate(-448.504 -120.228)" fill="#403449"/>
    <path id="Path_1129" data-name="Path 1129" d="M958.981,196.094l-1.7-4.878-1.7,4.878Zm.622,1.752H954.97l-.819,2.325h-2.44l4.257-11.428H958.6l4.241,11.428h-2.44Z" transform="translate(-456.889 -120.329)" fill="#403449"/>
    <path id="Path_1130" data-name="Path 1130" d="M986.327,200.07h-2.309l-5.174-7.859v7.859h-2.308V188.511h2.308l5.174,7.924v-7.924h2.309Z" transform="translate(-467.698 -120.228)" fill="#403449"/>
    <path id="Path_1131" data-name="Path 1131" d="M1007.293,197.025a4.235,4.235,0,0,0,0-5.518,4,4,0,0,0-2.891-.982h-1.6v7.483h1.6A4,4,0,0,0,1007.293,197.025Zm2.642.278a5.013,5.013,0,0,1-2.083,2.039,6.843,6.843,0,0,1-3.252.728h-4.11V188.511h4.11a6.971,6.971,0,0,1,3.252.712,4.927,4.927,0,0,1,2.083,2.014,6.726,6.726,0,0,1,0,6.066Z" transform="translate(-478.128 -120.228)" fill="#403449"/>
    <path id="Path_1132" data-name="Path 1132" d="M968.25,74.653s29.8,11.253,29.171,27.536h.011v27.536s-29.805-11.252-29.172-27.536h-.01Z" transform="translate(-464.09 -70.651)" fill="#403449"/>
    <path id="Path_1133" data-name="Path 1133" d="M1066.96,148.755a40.746,40.746,0,0,1,18.93-6.978v-8.622a38.824,38.824,0,0,0-18.93,15.6Z" transform="translate(-507.072 -96.125)" fill="#403449"/>
    <path id="Path_1134" data-name="Path 1134" d="M1046.118,130.8a40.487,40.487,0,0,1,22.317-20V85.958s-42.444,16.024-41.547,39.211h-.011v39.211s1.891-.716,4.866-2.06c-.011-1.258.028-2.522.135-3.792a40.737,40.737,0,0,1,14.239-27.732Z" transform="translate(-489.617 -75.573)" fill="#403449"/>
    <path id="Path_1135" data-name="Path 1135" d="M1048.023,185a40.429,40.429,0,0,1,1.485-8.028,37.857,37.857,0,0,0-8.875,21.423c-.062.747-.1,1.493-.113,2.237,2.411-1.161,5.217-2.6,8.164-4.3A40.558,40.558,0,0,1,1048.023,185Z" transform="translate(-495.559 -115.202)" fill="#403449"/>
    <path id="Path_1136" data-name="Path 1136" d="M1056.7,174.9a38.768,38.768,0,0,0,.525,10.279c11.6-6.937,24.632-17.657,24.124-30.615h.017v-1.1a38.065,38.065,0,0,0-22.063,10.3,38.716,38.716,0,0,0-2.6,11.136Z" transform="translate(-502.547 -104.965)" fill="#403449"/>
    <path id="Path_1137" data-name="Path 1137" d="M369.353,731.357v2.3h1.509a1.9,1.9,0,0,0,.694-.107,1.1,1.1,0,0,0,.421-.279.936.936,0,0,0,.209-.387,1.685,1.685,0,0,0,.057-.437,1.457,1.457,0,0,0-.067-.457.758.758,0,0,0-.228-.342,1.133,1.133,0,0,0-.428-.216,2.486,2.486,0,0,0-.672-.076h-1.5Zm0-1.432h1.116a3.677,3.677,0,0,0,.64-.051,1.346,1.346,0,0,0,.486-.177.821.821,0,0,0,.3-.349,1.312,1.312,0,0,0,.1-.558,1.59,1.59,0,0,0-.082-.549.8.8,0,0,0-.253-.352,1.074,1.074,0,0,0-.435-.19,3,3,0,0,0-.624-.057h-1.256Zm-2.143,5.35v-9.236h3.4a6.45,6.45,0,0,1,1.629.178,3.1,3.1,0,0,1,1.1.5,1.9,1.9,0,0,1,.618.786,2.646,2.646,0,0,1,.194,1.033,2.031,2.031,0,0,1-.089.6,1.774,1.774,0,0,1-.279.542,2.078,2.078,0,0,1-.488.46,3.164,3.164,0,0,1-.716.359,2.54,2.54,0,0,1,1.35.719,1.866,1.866,0,0,1,.437,1.277,2.646,2.646,0,0,1-.228,1.1,2.521,2.521,0,0,1-.669.885,3.173,3.173,0,0,1-1.087.589,4.721,4.721,0,0,1-1.477.212H367.21Z" transform="translate(-202.377 -354.286)" fill="#ce5959"/>
    <path id="Path_1138" data-name="Path 1138" d="M388.576,730.381h.862a2.206,2.206,0,0,0,.745-.111,1.348,1.348,0,0,0,.5-.308,1.181,1.181,0,0,0,.285-.46,1.762,1.762,0,0,0,.089-.567,1.189,1.189,0,0,0-.4-.951,1.846,1.846,0,0,0-1.227-.342h-.862v2.738Zm0,1.477v3.416h-2.143v-9.236h3a6.173,6.173,0,0,1,1.708.205,3.214,3.214,0,0,1,1.153.574,2.174,2.174,0,0,1,.65.868,3.04,3.04,0,0,1,.082,1.94,2.565,2.565,0,0,1-.358.738,2.776,2.776,0,0,1-.583.605,3.087,3.087,0,0,1-.8.438,2.047,2.047,0,0,1,.4.266,1.589,1.589,0,0,1,.326.387l1.965,3.214h-1.939a.823.823,0,0,1-.773-.405l-1.534-2.681a.651.651,0,0,0-.238-.254.8.8,0,0,0-.384-.076h-.545Z" transform="translate(-210.748 -354.286)" fill="#ce5959"/>
    <path id="Path_1139" data-name="Path 1139" d="M407.943,731.745h2.523l-.85-2.53-.193-.567q-.111-.327-.219-.707-.1.387-.209.716t-.2.571l-.85,2.517Zm5.934,3.53h-1.66a.77.77,0,0,1-.46-.13.67.67,0,0,1-.25-.333l-.545-1.61h-3.512l-.545,1.61a.732.732,0,0,1-.7.462h-1.674l3.575-9.236H410.3l3.575,9.236Z" transform="translate(-218.629 -354.286)" fill="#ce5959"/>
    <path id="Path_1140" data-name="Path 1140" d="M428.262,726.052a.564.564,0,0,1,.171.047.588.588,0,0,1,.146.1,1.681,1.681,0,0,1,.158.172l4.387,5.546q-.025-.266-.038-.517c-.008-.167-.012-.324-.012-.472v-4.887h1.889v9.236h-1.116a1.027,1.027,0,0,1-.418-.076.89.89,0,0,1-.33-.279l-4.355-5.5q.019.241.032.473t.012.434v4.951H426.9v-9.236h1.129a1.705,1.705,0,0,1,.234.013Z" transform="translate(-228.368 -354.286)" fill="#ce5959"/>
    <path id="Path_1141" data-name="Path 1141" d="M454.554,730.654a4.02,4.02,0,0,0-.177-1.236,2.638,2.638,0,0,0-.51-.935,2.213,2.213,0,0,0-.815-.589,2.765,2.765,0,0,0-1.1-.206h-1.432v5.94h1.432a2.766,2.766,0,0,0,1.1-.206,2.219,2.219,0,0,0,.815-.589,2.637,2.637,0,0,0,.51-.935A4.039,4.039,0,0,0,454.554,730.654Zm2.194,0a4.843,4.843,0,0,1-.346,1.848,4.335,4.335,0,0,1-.973,1.465,4.4,4.4,0,0,1-1.512.963,5.352,5.352,0,0,1-1.962.346h-3.588v-9.236h3.588a5.317,5.317,0,0,1,1.962.348,4.483,4.483,0,0,1,1.512.964,4.3,4.3,0,0,1,.973,1.461A4.826,4.826,0,0,1,456.748,730.654Z" transform="translate(-237.716 -354.286)" fill="#ce5959"/>
    <path id="Path_1142" data-name="Path 1142" d="M479.71,726.052a.561.561,0,0,1,.171.047.587.587,0,0,1,.146.1,1.746,1.746,0,0,1,.159.172l4.387,5.546c-.017-.177-.03-.349-.038-.517s-.013-.324-.013-.472v-4.887h1.889v9.236h-1.116a1.027,1.027,0,0,1-.418-.076.893.893,0,0,1-.33-.279l-4.355-5.5c.013.161.023.318.032.473s.012.3.012.434v4.951h-1.888v-9.236h1.129a1.718,1.718,0,0,1,.234.013Z" transform="translate(-250.77 -354.286)" fill="#ce5959"/>
    <path id="Path_1143" data-name="Path 1143" d="M501.9,731.745h2.523l-.85-2.53-.193-.567q-.111-.327-.219-.707-.1.387-.209.716t-.2.571l-.85,2.517Zm5.934,3.53h-1.661a.769.769,0,0,1-.46-.13.67.67,0,0,1-.25-.333l-.545-1.61h-3.512l-.545,1.61a.732.732,0,0,1-.7.462H498.49l3.575-9.236h2.193l3.575,9.236Z" transform="translate(-259.541 -354.286)" fill="#ce5959"/>
    <path id="Path_1144" data-name="Path 1144" d="M525.823,731.558c.078.173.154.351.225.533q.108-.279.228-.543c.081-.175.163-.346.247-.51l2.371-4.671a.779.779,0,0,1,.129-.187.436.436,0,0,1,.15-.1.508.508,0,0,1,.187-.032h1.879v9.229h-1.889v-5.312c0-.258.013-.536.038-.837l-2.447,4.748a.812.812,0,0,1-.307.336.854.854,0,0,1-.44.114H525.9a.851.851,0,0,1-.44-.114.8.8,0,0,1-.308-.336l-2.46-4.754c.017.148.029.295.039.44s.012.28.012.4v5.312h-1.89V726.05h1.88a.512.512,0,0,1,.187.032.443.443,0,0,1,.148.1.8.8,0,0,1,.13.187l2.377,4.69Q525.706,731.3,525.823,731.558Z" transform="translate(-269.28 -354.291)" fill="#ce5959"/>
    <path id="Path_1145" data-name="Path 1145" d="M552.381,726.039v1.648h-3.791v2.155h2.9v1.585h-2.9v2.2h3.791v1.648h-5.946v-9.236Z" transform="translate(-280.418 -354.286)" fill="#ce5959"/>
    <path id="Path_1146" data-name="Path 1146" d="M468.3,594.083H394.332a2.447,2.447,0,0,0-2.119,3.67L429.2,661.815a2.447,2.447,0,0,0,4.238,0l36.986-64.062A2.447,2.447,0,0,0,468.3,594.083Zm-1.751,3.458-35.236,61.03-35.236-61.03Z" transform="translate(-213.12 -296.828)" fill="#ce5959"/>
    <path id="Path_1147" data-name="Path 1147" d="M412.616,607.754,423.9,588.206l18.577,32.176H419.907Zm7.291-26.469,2.332,4.038-11.286,19.549-2.332-4.038Zm10.032-27.554-41.224,71.4h82.449Z" transform="translate(-211.741 -279.257)" fill="#ce5959"/>
    <path id="Path_1148" data-name="Path 1148" d="M1024.218,570.982A31.253,31.253,0,0,1,1022.8,625.5a31.249,31.249,0,1,0-14.995-58.9A31.111,31.111,0,0,1,1024.218,570.982Z" transform="translate(-481.312 -283.296)" fill="#f6b217"/>
    <path id="Path_1149" data-name="Path 1149" d="M972.281,632.623a40.666,40.666,0,0,0,7.12,13.937,43.1,43.1,0,0,0,7.5,4.335,42.306,42.306,0,0,1-8.348-15.663,45.594,45.594,0,0,1-.461-23.542,42.9,42.9,0,0,1-2.354-11.787A43.321,43.321,0,0,0,972.281,632.623Z" transform="translate(-465.095 -299.362)" fill="#f6b217"/>
    <path id="Path_1150" data-name="Path 1150" d="M986.051,645.939a40.867,40.867,0,0,0,10.185,17.431,43.1,43.1,0,0,0,51.059-18.093,43.1,43.1,0,0,1-62.185-19.8A44.193,44.193,0,0,0,986.051,645.939Z" transform="translate(-471.092 -310.496)" fill="#f6b217"/>
    <path id="Path_1151" data-name="Path 1151" d="M968.671,577.609a42.88,42.88,0,0,1,6.36-22.045,43.078,43.078,0,0,0-6.993,68.084,41.986,41.986,0,0,1-4.257-9.906A44.745,44.745,0,0,1,968.671,577.609Z" transform="translate(-458.096 -280.055)" fill="#f6b217"/>
    <path id="Path_1152" data-name="Path 1152" d="M1007.073,585.015s-10.657,28.7,17.812,38.692C1035.81,595.579,1007.073,585.015,1007.073,585.015Z" transform="translate(-480.145 -292.879)" fill="#f6b217"/>
    <path id="Path_1153" data-name="Path 1153" d="M949.726,727.293a4.834,4.834,0,0,1-1.891-1.814,5.3,5.3,0,0,1,.007-5.222,4.889,4.889,0,0,1,1.9-1.813,5.561,5.561,0,0,1,2.7-.657,5.636,5.636,0,0,1,2.216.423,4.528,4.528,0,0,1,1.694,1.228l-1.186,1.116a3.456,3.456,0,0,0-2.639-1.157,3.7,3.7,0,0,0-1.821.444,3.2,3.2,0,0,0-1.256,1.235,3.786,3.786,0,0,0,0,3.585,3.2,3.2,0,0,0,1.256,1.235,3.7,3.7,0,0,0,1.821.445,3.437,3.437,0,0,0,2.639-1.172l1.186,1.129a4.5,4.5,0,0,1-1.7,1.228,5.689,5.689,0,0,1-2.223.423A5.568,5.568,0,0,1,949.726,727.293Z" transform="translate(-454.902 -350.693)" fill="#f6b217"/>
    <path id="Path_1154" data-name="Path 1154" d="M977.049,725.9a3.208,3.208,0,0,0,1.242-1.242,3.755,3.755,0,0,0,0-3.571,3.217,3.217,0,0,0-1.242-1.242,3.781,3.781,0,0,0-3.557,0,3.218,3.218,0,0,0-1.242,1.242,3.755,3.755,0,0,0,0,3.571,3.209,3.209,0,0,0,1.242,1.242,3.773,3.773,0,0,0,3.557,0Zm-4.5,1.4a4.858,4.858,0,0,1-1.905-1.821,5.244,5.244,0,0,1,0-5.208,4.855,4.855,0,0,1,1.905-1.821,5.978,5.978,0,0,1,5.448,0,4.881,4.881,0,0,1,1.905,1.813,5.271,5.271,0,0,1,0,5.222A4.879,4.879,0,0,1,978,727.293a5.983,5.983,0,0,1-5.448,0Z" transform="translate(-464.83 -350.693)" fill="#f6b217"/>
    <path id="Path_1155" data-name="Path 1155" d="M1006.323,727.917l-.011-6.548-3.246,5.419h-.819L999,721.453v6.464h-1.75v-9.88h1.51l3.927,6.55,3.85-6.55h1.513l.011,9.88Z" transform="translate(-476.718 -350.802)" fill="#f6b217"/>
    <path id="Path_1156" data-name="Path 1156" d="M1031.928,723.005a2.011,2.011,0,0,0,0-2.907,2.817,2.817,0,0,0-1.823-.509h-2.14v3.924h2.14A2.818,2.818,0,0,0,1031.928,723.005Zm.5-4.545a3.3,3.3,0,0,1,1.462,1.214,3.744,3.744,0,0,1,0,3.747,3.283,3.283,0,0,1-1.462,1.221,5.5,5.5,0,0,1-2.242.423h-2.224v2.851h-1.835v-9.88h4.059A5.5,5.5,0,0,1,1032.431,718.46Z" transform="translate(-489.293 -350.802)" fill="#f6b217"/>
    <path id="Path_1157" data-name="Path 1157" d="M1052.868,724.191l-1.857-4.32-1.852,4.32Zm.61,1.439h-4.94l-.971,2.286h-1.9l4.449-9.88h1.807l4.46,9.88h-1.92Z" transform="translate(-497.801 -350.802)" fill="#f6b217"/>
    <path id="Path_1158" data-name="Path 1158" d="M1080.653,718.037v9.88h-1.507l-5.448-6.69v6.69h-1.818v-9.88h1.507l5.448,6.691v-6.691Z" transform="translate(-509.214 -350.802)" fill="#f6b217"/>
    <path id="Path_1159" data-name="Path 1159" d="M1100.263,724.431v3.486h-1.835v-3.458l-3.879-6.422h1.959l2.9,4.813,2.919-4.813h1.807Z" transform="translate(-519.085 -350.802)" fill="#f6b217"/>
    <path id="Path_1160" data-name="Path 1160" d="M723.982,705.444v5.328h2.93a4.482,4.482,0,0,0,2.673-.659,2.385,2.385,0,0,0,.891-2.053,2.181,2.181,0,0,0-.962-2.033,5.959,5.959,0,0,0-3-.584h-2.531Zm0-1.318h3.005a3.941,3.941,0,0,0,2.219-.512,2.046,2.046,0,0,0,.749-1.82,1.893,1.893,0,0,0-.9-1.816,5.96,5.96,0,0,0-2.783-.5h-2.294v4.645Zm-1.64-6.03h4.02a7.653,7.653,0,0,1,4.006.825,2.877,2.877,0,0,1,1.3,2.626,4.2,4.2,0,0,1-.033.527,3.644,3.644,0,0,1-.171.668,2.9,2.9,0,0,1-.374.745,3.046,3.046,0,0,1-.7.673,3.756,3.756,0,0,1-1.076.535,3.412,3.412,0,0,1,2.143,1.195,3.515,3.515,0,0,1,.73,2.237,3.631,3.631,0,0,1-1.247,2.949,5.67,5.67,0,0,1-3.712,1.043h-4.892V698.1Z" transform="translate(-357.014 -342.119)" fill="#403449"/>
    <path id="Path_1161" data-name="Path 1161" d="M752.041,699.281v4.741q.388,0,1.607.019t1.882.019a3.983,3.983,0,0,0,2.521-.6,2.369,2.369,0,0,0,.711-1.91,2.076,2.076,0,0,0-.683-1.707,3.633,3.633,0,0,0-2.285-.56ZM761.029,712h-1.9l-1.934-4.4q-.788-1.773-1.005-2.133-.692.047-1.64.047l-2.512-.076V712h-1.678V697.812h4.485q.777,0,1.374.037a11.6,11.6,0,0,1,1.19.138,4.986,4.986,0,0,1,1.029.275,3.691,3.691,0,0,1,.815.455,2.271,2.271,0,0,1,.611.668,3.373,3.373,0,0,1,.365.924,5.057,5.057,0,0,1,.133,1.209,3.782,3.782,0,0,1-.7,2.285,3.585,3.585,0,0,1-1.977,1.327,3.162,3.162,0,0,0,.19.342q.189.323.451.792t.4.783L761.029,712Z" transform="translate(-369.215 -341.995)" fill="#403449"/>
    <path id="Path_1162" data-name="Path 1162" d="M785.738,706.276q-2-5.812-2.209-6.532l-2.3,6.532Zm2.171,5.821-1.64-4.447h-5.594l-1.7,4.447H777.31l5.385-14.051h1.678L789.6,712.1h-1.687Z" transform="translate(-380.948 -342.097)" fill="#403449"/>
    <path id="Path_1163" data-name="Path 1163" d="M820,712.119h-1.858l-7.281-11.036-.474-.654q.076,1.991.076,3.555v8.135h-1.536V698.1h1.83l7.3,11.036.483.654q-.066-3.025-.066-3.5V698.1H820Z" transform="translate(-394.714 -342.119)" fill="#403449"/>
    <path id="Path_1164" data-name="Path 1164" d="M851.034,705.141a5.426,5.426,0,0,0-1.516-4.276,6.49,6.49,0,0,0-4.418-1.336h-2.2v11.158h2.474a5.829,5.829,0,0,0,4.214-1.4,5.517,5.517,0,0,0,1.445-4.148Zm1.755-.047a6.773,6.773,0,0,1-1.944,5.224,7.675,7.675,0,0,1-5.423,1.8H841.26V698.1h3.887a10.989,10.989,0,0,1,3.138.412,6.777,6.777,0,0,1,2.4,1.252,5.347,5.347,0,0,1,1.559,2.19A8.427,8.427,0,0,1,852.789,705.094Z" transform="translate(-408.794 -342.119)" fill="#403449"/>
    <path id="Path_1165" data-name="Path 1165" d="M714.184,593.572h8.711V580.31H667.111v55.784h55.784V618.025h-8.711Z" transform="translate(-332.964 -290.831)" fill="#403449"/>
    <rect id="Rectangle_60" data-name="Rectangle 60" width="15.744" height="24.454" transform="translate(394.986 302.741)" fill="#403449"/>
    <path id="Path_1166" data-name="Path 1166" d="M681.759,703.929h-9.673l9.673-9.673Zm-14.648-14.648V708.9h19.622V689.281Z" transform="translate(-332.964 -338.28)" fill="#403449"/>
    <path id="Path_1167" data-name="Path 1167" d="M140.91,364.894l.624-1.08,12.92-22.376L143.4,322.3,118.81,364.894,143.4,407.486l11.05-19.137-12.92-22.375Z" transform="translate(-94.216 -178.485)" fill="#403449"/>
    <path id="Path_1168" data-name="Path 1168" d="M109.021,385.11l-9.179,15.9L78.988,364.894,99.841,328.78l9.179,15.9,1.87-3.24L99.841,322.3,75.247,364.894l24.594,42.593,11.05-19.137-1.87-3.24Z" transform="translate(-75.247 -178.485)" fill="#403449"/>
    <path id="Path_1169" data-name="Path 1169" d="M193,383.238l.02.011V376.38l-15.51,26.859,1.97,3.412Z" transform="translate(-119.774 -202.033)" fill="#403449"/>
    <path id="Path_1170" data-name="Path 1170" d="M190.905,366.6l.02.011v-6.869L172.7,391.3l1.97,3.412Z" transform="translate(-117.683 -194.789)" fill="#403449"/>
    <path id="Path_1171" data-name="Path 1171" d="M164.752,369.736l21.655-37.5.02.011v-8.288l-24.055,41.657Z" transform="translate(-113.184 -179.206)" fill="#403449"/>
    <path id="Path_1172" data-name="Path 1172" d="M188.814,349.965l.02.011v-6.87L167.9,379.359l1.97,3.411Z" transform="translate(-115.592 -187.545)" fill="#403449"/>
    <path id="Path_1173" data-name="Path 1173" d="M206.892,323.957v83.315l24.054-41.657-24.054-41.658Z" transform="translate(-132.57 -179.206)" fill="#403449"/>
    <path id="Path_1174" data-name="Path 1174" d="M195.088,399.874l.02.012v-6.87l-12.8,22.163,1.97,3.412Z" transform="translate(-121.866 -209.277)" fill="#403449"/>
    <path id="Path_1175" data-name="Path 1175" d="M197.179,416.51l.02.012v-6.87l-10.087,17.467,1.97,3.412Z" transform="translate(-123.957 -216.521)" fill="#403449"/>
    <path id="Path_1176" data-name="Path 1176" d="M202.987,455.691l-2.582,4.471,2.582,4.471v-8.942Z" transform="translate(-129.745 -236.567)" fill="#403449"/>
    <path id="Path_1177" data-name="Path 1177" d="M198.059,453.319l3.3-5.721.02.012v-4.685L196.72,451Z" transform="translate(-128.14 -231.009)" fill="#403449"/>
    <path id="Path_1178" data-name="Path 1178" d="M199.271,433.147l.02.011v-6.869l-7.374,12.771,1.97,3.412Z" transform="translate(-126.049 -223.765)" fill="#403449"/>
    <path id="Path_1179" data-name="Path 1179" d="M113.905,500.2a2.055,2.055,0,0,0-.016-2.988,2.766,2.766,0,0,0-1.812-.54h-2.449v4.059h2.481A2.728,2.728,0,0,0,113.905,500.2Zm-4.277-4.623h2.449a2.438,2.438,0,0,0,1.651-.5,1.762,1.762,0,0,0,.571-1.4,1.735,1.735,0,0,0-.564-1.369,2.542,2.542,0,0,0-1.724-.5h-2.384Zm5.774,1.5a2.734,2.734,0,0,1,.653,1.821,2.828,2.828,0,0,1-.943,2.223,3.985,3.985,0,0,1-2.73.837h-4.22V490.6h4.155a3.9,3.9,0,0,1,2.594.757,2.917,2.917,0,0,1,.3,3.85,2.666,2.666,0,0,1-1.506.869A2.974,2.974,0,0,1,115.4,497.073Z" transform="translate(-89.58 -251.767)" fill="#403449"/>
    <path id="Path_1180" data-name="Path 1180" d="M132.568,496.252h2.142q2.5,0,2.5-2.191t-2.5-2.19h-2.142Zm4.558,5.7-2.964-4.639h-1.594v4.639H131.1V490.6h3.737a4.044,4.044,0,0,1,2.9.926,3.244,3.244,0,0,1,.967,2.456,3.177,3.177,0,0,1-.773,2.231,3.607,3.607,0,0,1-2.239,1.055l3.093,4.687Z" transform="translate(-99.568 -251.767)" fill="#403449"/>
    <path id="Path_1181" data-name="Path 1181" d="M159,498.346l-2.078-5.734-2.078,5.734Zm.419,1.144h-4.994l-.95,2.625H151.9l4.2-11.146h1.659l4.188,11.146h-1.579Z" transform="translate(-108.624 -251.929)" fill="#403449"/>
    <path id="Path_1182" data-name="Path 1182" d="M186.863,501.954H185.4l-5.9-8.972v8.972h-1.466V490.6H179.5l5.9,8.988V490.6h1.466Z" transform="translate(-120.004 -251.767)" fill="#403449"/>
    <path id="Path_1183" data-name="Path 1183" d="M210.436,499.489a4.287,4.287,0,0,0,1.175-3.221,4.334,4.334,0,0,0-1.168-3.23,4.658,4.658,0,0,0-3.407-1.152h-2.029v8.747h2.029A4.681,4.681,0,0,0,210.436,499.489Zm1.981-.217a4.748,4.748,0,0,1-2.038,1.981,6.906,6.906,0,0,1-3.229.7h-3.608V490.6h3.608a7.049,7.049,0,0,1,3.229.684,4.658,4.658,0,0,1,2.038,1.965,6.9,6.9,0,0,1,0,6.024Z" transform="translate(-131.111 -251.767)" fill="#403449"/>
  </g>
</svg>
