<svg id="mailIcon" xmlns="http://www.w3.org/2000/svg" width="40" height="40" viewBox="0 0 40 40">
  <g id="Group_58" data-name="Group 58" transform="translate(0 0)">
    <g id="Group_57" data-name="Group 57">
      <path id="Path_1035" data-name="Path 1035" d="M39.993,15.3a.631.631,0,0,0-.027-.135.667.667,0,0,0-.038-.115.6.6,0,0,0-.067-.1.629.629,0,0,0-.089-.1c-.011-.009-.015-.022-.027-.031L33.334,9.83V4.669a2,2,0,0,0-2-2H24.109L21.216.423a1.977,1.977,0,0,0-2.431,0L15.891,2.669H8.666a2,2,0,0,0-2,2V9.83L.256,14.81c-.011.009-.016.022-.027.031a.625.625,0,0,0-.089.1.6.6,0,0,0-.067.1.658.658,0,0,0-.038.115.632.632,0,0,0-.027.133c0,.014-.008.026-.008.04V38a1.978,1.978,0,0,0,.391,1.177c0,.006,0,.013.009.019s.015.011.021.019A1.99,1.99,0,0,0,2,40H38a1.991,1.991,0,0,0,1.581-.789c.005-.007.013-.009.018-.015s.005-.013.009-.019A1.978,1.978,0,0,0,40,38V15.336C40,15.322,39.994,15.31,39.993,15.3ZM19.6,1.475a.639.639,0,0,1,.8,0l1.538,1.194H18.066ZM2.167,38.671,19.6,25.13a.64.64,0,0,1,.8,0L37.833,38.671Zm36.5-1.039L21.216,24.077a1.978,1.978,0,0,0-2.431,0L1.332,37.632V16.352l10.925,8.484a.667.667,0,0,0,.817-1.054l-11.1-8.619,4.69-3.645V16.67A.667.667,0,1,0,8,16.67v-12A.667.667,0,0,1,8.666,4H31.334A.667.667,0,0,1,32,4.669v12a.667.667,0,1,0,1.333,0V11.518l4.69,3.645L26.905,23.8a.667.667,0,1,0,.817,1.053l10.945-8.5v21.28Z" transform="translate(-0.001 -0.004)" fill="#a3a3a3"/>
      <path id="Path_1036" data-name="Path 1036" d="M169.489,78.847V76.194a7.957,7.957,0,1,0-7.957,7.957.663.663,0,1,0,0-1.326,6.631,6.631,0,1,1,6.631-6.631v2.652a1.326,1.326,0,0,1-2.652,0V76.194a.663.663,0,1,0-1.326,0,2.652,2.652,0,1,1-2.652-2.652.663.663,0,1,0,0-1.326,3.979,3.979,0,1,0,2.681,6.91,2.645,2.645,0,0,0,5.276-.279Z" transform="translate(-141.532 -62.935)" fill="#a3a3a3"/>
    </g>
  </g>
</svg>
