<svg id="mapIcon" xmlns="http://www.w3.org/2000/svg" width="45.01" height="39.79" viewBox="0 0 45.01 39.79">
  <g id="Group_60" data-name="Group 60">
    <g id="Group_59" data-name="Group 59">
      <path id="Path_1037" data-name="Path 1037" d="M91.863,31.357C93.528,33.6,95.19,35.6,96.292,36.9c.16.188.311.362.456.53H93.424a.644.644,0,1,0,0,1.287H104.2a.644.644,0,1,0,0-1.287h-3.324l.457-.53c1.1-1.287,2.762-3.3,4.427-5.539a56.19,56.19,0,0,0,4.45-6.852,14.562,14.562,0,0,0,2.074-6.368,12.577,12.577,0,0,0-3.946-9.113.7.7,0,0,0-.655-.176.659.659,0,0,0-.481.459.624.624,0,0,0,.183.626,11.323,11.323,0,0,1,3.552,8.2,13.428,13.428,0,0,1-1.927,5.784,54.922,54.922,0,0,1-4.349,6.693c-1.642,2.213-3.284,4.2-4.372,5.47-.362.423-.687.8-.965,1.115a.7.7,0,0,1-1.027,0c-.278-.317-.6-.691-.965-1.115-1.088-1.274-2.73-3.256-4.372-5.47a54.921,54.921,0,0,1-4.349-6.693,13.41,13.41,0,0,1-1.927-5.784A11.611,11.611,0,0,1,94.1,7.447a12.732,12.732,0,0,1,9.438,0,.7.7,0,0,0,.669-.079.631.631,0,0,0,.263-.593.648.648,0,0,0-.406-.514A13.722,13.722,0,0,0,86.4,13.12a12.33,12.33,0,0,0-1.059,5.016,14.585,14.585,0,0,0,2.074,6.371A56.152,56.152,0,0,0,91.863,31.357Z" transform="translate(-76.308 -5.246)" fill="#a3a3a3"/>
      <path id="Path_1038" data-name="Path 1038" d="M179.692,83.891a.9.9,0,0,0,0-1.806,9.031,9.031,0,1,0,6.386,2.645.9.9,0,1,0-1.277,1.277,7.225,7.225,0,1,1-5.109-2.116Z" transform="translate(-157.187 -77.069)" fill="#a3a3a3"/>
      <path id="Path_1039" data-name="Path 1039" d="M44.728,375.037,40.115,365.1a2.3,2.3,0,0,0-2.041-1.419H32.727a.919.919,0,0,0,0,1.806h5.346a.814.814,0,0,1,.733.493l4.612,9.935a.957.957,0,0,1-.007.835.8.8,0,0,1-.726.479H2.326a.8.8,0,0,1-.725-.479.957.957,0,0,1-.007-.835l4.612-9.935a.813.813,0,0,1,.732-.493h5.346a.919.919,0,0,0,0-1.806H6.938A2.3,2.3,0,0,0,4.9,365.1L.283,375.037a3.087,3.087,0,0,0,.023,2.629,2.263,2.263,0,0,0,2.02,1.371H42.686a2.263,2.263,0,0,0,2.019-1.371A3.087,3.087,0,0,0,44.728,375.037Z" transform="translate(0 -339.248)" fill="#a3a3a3"/>
      <path id="Path_1040" data-name="Path 1040" d="M357.094,406.351h-3.613a.908.908,0,0,0-.5.152l-2.709,1.806a.9.9,0,0,0,1,1.5l2.479-1.655h3.342a.9.9,0,0,0,0-1.806Z" transform="translate(-320.218 -377.399)" fill="#a3a3a3"/>
      <path id="Path_1041" data-name="Path 1041" d="M366.937,458.454a.9.9,0,0,0,.9.9h7.225a.9.9,0,0,0,0-1.806H367.84A.9.9,0,0,0,366.937,458.454Z" transform="translate(-337.28 -423.181)" fill="#a3a3a3"/>
      <path id="Path_1042" data-name="Path 1042" d="M92.562,409.963a.9.9,0,0,0,.5-1.655L90.355,406.5a.909.909,0,0,0-.5-.152H86.24a.9.9,0,0,0,0,1.806h3.342l2.482,1.655A.9.9,0,0,0,92.562,409.963Z" transform="translate(-78.105 -377.399)" fill="#a3a3a3"/>
      <path id="Path_1043" data-name="Path 1043" d="M60.64,457.551a.9.9,0,1,0,0,1.806h7.225a.9.9,0,1,0,0-1.806Z" transform="translate(-53.415 -423.181)" fill="#a3a3a3"/>
    </g>
  </g>
</svg>
