<svg id="phone" xmlns="http://www.w3.org/2000/svg" width="38.112" height="38.109" viewBox="0 0 38.112 38.109">
  <g id="Group_54" data-name="Group 54">
    <g id="Group_53" data-name="Group 53">
      <path id="Path_1024" data-name="Path 1024" d="M38.112,30.418,30.4,25.274a2.252,2.252,0,0,0-3.015.49l-2.247,2.889a.96.96,0,0,1-1.231.259l-.427-.236a25.831,25.831,0,0,1-6.732-5.287,25.936,25.936,0,0,1-5.288-6.732l-.234-.427a.962.962,0,0,1,.254-1.236l2.887-2.246a2.253,2.253,0,0,0,.49-3.015L9.71,2.018a2.24,2.24,0,0,0-3.019-.68L3.465,3.276A4.55,4.55,0,0,0,1.39,5.969C.229,10.2,1.1,17.506,11.863,28.267c8.559,8.559,14.931,10.86,19.311,10.86a11.252,11.252,0,0,0,2.985-.39,4.546,4.546,0,0,0,2.693-2.075l1.94-3.224A2.24,2.24,0,0,0,38.112,30.418ZM37.7,32.787l-1.935,3.226a3.282,3.282,0,0,1-1.937,1.5c-3.907,1.073-10.733.184-21.063-10.146S1.543,10.213,2.616,6.3a3.287,3.287,0,0,1,1.5-1.94L7.345,2.43a.972.972,0,0,1,1.31.295l2.794,4.2,2.345,3.518a.978.978,0,0,1-.212,1.308l-2.888,2.246a2.223,2.223,0,0,0-.589,2.853l.229.417a26.943,26.943,0,0,0,5.505,7.024,26.971,26.971,0,0,0,7.024,5.5l.417.23a2.223,2.223,0,0,0,2.853-.589l2.246-2.888a.978.978,0,0,1,1.308-.212L37.4,31.477A.971.971,0,0,1,37.7,32.787Z" transform="translate(-1 -1.018)" fill="#a3a3a3"/>
      <path id="Path_1025" data-name="Path 1025" d="M283.263,70.594a10.809,10.809,0,0,1,10.8,10.8.635.635,0,1,0,1.27,0,12.08,12.08,0,0,0-12.067-12.067.635.635,0,0,0,0,1.27Z" transform="translate(-261.668 -64.24)" fill="#a3a3a3"/>
      <path id="Path_1026" data-name="Path 1026" d="M283.263,121.794a6.994,6.994,0,0,1,6.986,6.986.635.635,0,1,0,1.27,0,8.266,8.266,0,0,0-8.256-8.256.635.635,0,0,0,0,1.27Z" transform="translate(-261.668 -111.63)" fill="#a3a3a3"/>
      <path id="Path_1027" data-name="Path 1027" d="M283.263,172.994a3.179,3.179,0,0,1,3.176,3.176.635.635,0,1,0,1.27,0,4.451,4.451,0,0,0-4.446-4.446.635.635,0,0,0,0,1.27Z" transform="translate(-261.668 -159.019)" fill="#a3a3a3"/>
    </g>
  </g>
</svg>
