<svg id="searchIcon" xmlns="http://www.w3.org/2000/svg" width="23.156" height="23.156" viewBox="0 0 23.156 23.156">
  <g id="Group_62" data-name="Group 62" transform="translate(13.561 8.589)">
    <g id="Group_61" data-name="Group 61">
      <path id="Path_1044" data-name="Path 1044" d="M300.458,190a.458.458,0,1,0,.458.458A.458.458,0,0,0,300.458,190Z" transform="translate(-300 -190)" fill="#555"/>
    </g>
  </g>
  <g id="Group_64" data-name="Group 64">
    <g id="Group_63" data-name="Group 63">
      <path id="Path_1045" data-name="Path 1045" d="M22.627,20.068,16.59,14.031a8.964,8.964,0,0,0,1.5-4.986,9.046,9.046,0,1,0-9.046,9.046,8.965,8.965,0,0,0,4.986-1.5L15.7,18.258h0l4.368,4.368a1.809,1.809,0,1,0,2.558-2.558Zm-8.808-4.432h0a8.149,8.149,0,1,1,1.818-1.818A8.18,8.18,0,0,1,13.819,15.636Zm.949.41a9.076,9.076,0,0,0,1.279-1.279l1.283,1.283a10.978,10.978,0,0,1-1.279,1.279Zm7.219,5.94a.9.9,0,0,1-1.279,0l-4.016-4.016a11.884,11.884,0,0,0,1.279-1.279l4.016,4.016a.9.9,0,0,1,0,1.279Z" fill="#555"/>
    </g>
  </g>
  <g id="Group_66" data-name="Group 66" transform="translate(1.832 1.832)">
    <g id="Group_65" data-name="Group 65">
      <path id="Path_1046" data-name="Path 1046" d="M47.33,40a7.33,7.33,0,1,0,7.33,7.33A7.338,7.338,0,0,0,47.33,40Zm0,13.743a6.414,6.414,0,1,1,6.414-6.414A6.421,6.421,0,0,1,47.33,53.743Z" transform="translate(-40 -40)" fill="#555"/>
    </g>
  </g>
  <g id="Group_68" data-name="Group 68" transform="translate(8.558 3.608)">
    <g id="Group_67" data-name="Group 67">
      <path id="Path_1047" data-name="Path 1047" d="M195.592,83.531A5.506,5.506,0,0,0,190.458,80a.458.458,0,0,0,0,.916,4.612,4.612,0,0,1,4.279,2.943.458.458,0,1,0,.855-.329Z" transform="translate(-190 -80)" fill="#555"/>
    </g>
  </g>
</svg>
